<?xml version="1.0" encoding="iso-8859-1"?>
<!-- Generator: Adobe Illustrator 19.0.0, SVG Export Plug-In . SVG Version: 6.00 Build 0)  -->
<svg version="1.1" id="Layer_1" xmlns="http://www.w3.org/2000/svg" xmlns:xlink="http://www.w3.org/1999/xlink" x="0px" y="0px"
	 viewBox="0 0 512 512" style="enable-background:new 0 0 512 512;" xml:space="preserve">
<g>
	<rect x="280.07" y="467.328" style="fill:#E09B2D;" width="41.252" height="44.672"/>
	<rect x="190.69" y="467.328" style="fill:#E09B2D;" width="41.252" height="44.672"/>
	<rect x="81.936" y="467.328" style="fill:#E09B2D;" width="41.252" height="44.672"/>
	<rect x="388.812" y="467.328" style="fill:#E09B2D;" width="41.252" height="44.672"/>
</g>
<polygon style="fill:#F7B239;" points="256.006,0 57.884,0 57.884,478.319 81.942,478.319 123.194,478.319 190.696,478.319 
	231.948,478.319 256.006,478.319 280.064,478.319 321.316,478.319 388.806,478.319 430.058,478.319 454.116,478.319 454.116,0 "/>
<rect x="287.2" y="31.2" style="fill:#F95428;" width="135.733" height="415.919"/>
<rect x="289.067" y="31.2" style="fill:#E54728;" width="34.352" height="415.919"/>
<g>
	<path style="fill:#E09B2D;" d="M268.759,0v478.319h-1.549h-2.655h-4.345h-2.655h-1.549V0H268.759z"/>
	<path style="fill:#E09B2D;" d="M70.638,0v478.319h-1.549h-2.655h-4.346h-2.655h-1.549V0H70.638z"/>
</g>
<rect x="89.078" y="31.2" style="fill:#F95428;" width="135.733" height="415.919"/>
<g>
	<rect x="130.214" y="77.299" style="fill:#4D4D4D;" width="53.472" height="17.391"/>
	<rect x="130.214" y="109.136" style="fill:#4D4D4D;" width="53.472" height="17.391"/>
	<rect x="130.214" y="140.986" style="fill:#4D4D4D;" width="53.472" height="17.391"/>
</g>
<rect x="89.078" y="31.2" style="fill:#E54728;" width="34.352" height="415.919"/>
<g>
	<rect x="328.325" y="77.299" style="fill:#4D4D4D;" width="53.484" height="17.391"/>
	<rect x="328.325" y="109.136" style="fill:#4D4D4D;" width="53.484" height="17.391"/>
	<rect x="328.325" y="140.986" style="fill:#4D4D4D;" width="53.484" height="17.391"/>
	<path style="fill:#4D4D4D;" d="M392.006,288.638c-4.802,0-8.696-3.893-8.696-8.696v-46.783c0-4.802,3.893-8.696,8.696-8.696
		c4.802,0,8.696,3.893,8.696,8.696v46.783C400.701,284.744,396.808,288.638,392.006,288.638z"/>
	<path style="fill:#4D4D4D;" d="M191.762,288.638c-4.802,0-8.696-3.893-8.696-8.696v-46.783c0-4.802,3.893-8.696,8.696-8.696
		s8.696,3.893,8.696,8.696v46.783C200.458,284.744,196.565,288.638,191.762,288.638z"/>
</g>
<g>
</g>
<g>
</g>
<g>
</g>
<g>
</g>
<g>
</g>
<g>
</g>
<g>
</g>
<g>
</g>
<g>
</g>
<g>
</g>
<g>
</g>
<g>
</g>
<g>
</g>
<g>
</g>
<g>
</g>
</svg>
